<svg width="35" height="22" viewBox="0 0 35 22" fill="none" xmlns="http://www.w3.org/2000/svg">
    <path
        d="M33.9618 18.3424L23.6994 13.0176C23.1967 12.7217 22.1064 11.7461 21.5209 10.1305C20.9715 8.61436 19.6957 7.64941 18.0518 7.47384C18.1759 6.64996 18.6063 5.9024 19.2571 5.41276C20.0425 4.82191 20.4892 3.87665 20.4521 2.88422C20.3939 1.32739 19.1475 0.0616586 17.6146 0.00253193C16.8022 -0.0309268 16.0349 0.268254 15.4512 0.83893C14.8673 1.40988 14.5457 2.17749 14.5457 3.00053C14.5457 3.28872 14.7757 3.52224 15.0594 3.52224C15.3431 3.52224 15.5731 3.28872 15.5731 3.00053C15.5731 2.46373 15.7829 1.96303 16.1638 1.5906C16.5445 1.21845 17.0462 1.02528 17.5755 1.04511C18.5749 1.08371 19.3875 1.90884 19.4254 2.92374C19.4496 3.57162 19.1581 4.1887 18.6455 4.57434C17.7364 5.25833 17.1478 6.31468 17.0149 7.4673C15.3388 7.62361 14.0358 8.59391 13.479 10.1305C12.8936 11.7461 11.8033 12.7217 11.3006 13.0176L5.80041 15.8714C5.54773 16.0025 5.4476 16.3167 5.57664 16.5733C5.70562 16.83 6.01521 16.9316 6.26782 16.8005L11.7752 13.9429C11.7925 13.9341 13.5518 12.9506 14.4432 10.4908C14.9044 9.21801 16.0186 8.48797 17.4999 8.48797C18.9813 8.48797 20.0954 9.21801 20.5567 10.4908C21.4416 12.933 23.1908 13.9246 23.2084 13.9343C23.2124 13.9365 23.2165 13.9388 23.2206 13.9409L33.4943 19.2716C33.9253 19.4952 34.0968 20.0332 33.8766 20.4709C33.6564 20.9087 33.1267 21.0828 32.6956 20.8591L25.3223 17.0334C25.0697 16.9022 24.7603 17.004 24.6312 17.2607C24.502 17.5172 24.6023 17.8315 24.8549 17.9626L28.9685 20.097H6.03138L13.8159 16.0579C16.1228 14.861 18.8774 14.861 21.1841 16.0579L23.0241 17.0126C23.2767 17.1439 23.5862 17.0421 23.7152 16.7854C23.8444 16.5288 23.7441 16.2146 23.4915 16.0834L21.6516 15.1287C19.0521 13.7799 15.9481 13.7799 13.3485 15.1287L2.30435 20.8592C1.87331 21.0827 1.3435 20.9087 1.12336 20.471C0.90315 20.0332 1.07466 19.4953 1.50563 19.2716L4.43222 17.7531C4.6849 17.622 4.78504 17.3078 4.656 17.0512C4.52688 16.7946 4.21742 16.6928 3.96481 16.8239L1.03815 18.3424C0.102647 18.8278 -0.269555 19.9956 0.208404 20.9456C0.439917 21.4058 0.834038 21.747 1.31823 21.9062C1.79722 22.0635 2.32346 22.0209 2.77176 21.7883L4.0205 21.1404H30.9796L32.2283 21.7883C32.5051 21.932 32.8006 22 33.0919 22C33.7853 22 34.4551 21.6146 34.7917 20.9457C35.2695 19.9956 34.8973 18.8278 33.9618 18.3424Z"
        fill="#A7AFBE" />
</svg>
