<svg width="36" height="36" viewBox="0 0 36 36" fill="none" xmlns="http://www.w3.org/2000/svg">
    <path d="M27.4281 7.74318L28.3972 7.4277L29.3923 10.4851L28.4233 10.8004L27.4281 7.74318Z"
        fill="white" />
    <path d="M25.9344 11.3104L26.9034 10.995L27.8989 14.0519L26.9298 14.3676L25.9344 11.3104Z"
        fill="white" />
    <path
        d="M8.75283 12.7968C8.64535 13.5753 8.8725 14.363 9.37855 14.9643L10.1142 15.8871V24.4004H11.1333V16.6907L11.8695 17.1813C12.0409 17.2955 12.2638 17.2955 12.4352 17.1813L13.681 16.3498L14.9267 17.1803C15.0981 17.2945 15.321 17.2945 15.4924 17.1803L16.7381 16.3498L17.9839 17.1803C18.1553 17.2945 18.3782 17.2945 18.5496 17.1803L19.7953 16.3498L21.0411 17.1803C21.2125 17.2945 21.4354 17.2945 21.6068 17.1803L22.8525 16.3498L23.8716 17.0291V32.5529H12.6619V33.5719H26.9288C28.3352 33.5702 29.4747 32.4307 29.4764 31.0243V15.7383C29.4752 15.6264 29.4366 15.5179 29.367 15.4301L32.3115 7.59103C32.7078 6.53788 32.5627 5.35759 31.9233 4.43183C31.3158 3.53368 30.3012 2.99678 29.2172 3.00001C27.8354 3.01295 26.6046 3.87627 26.1222 5.17125L25.3233 7.29795L24.3811 6.35576V4.52861C24.3811 4.24722 24.153 4.01908 23.8716 4.01908H18.2667C17.9854 4.01908 17.7572 4.24722 17.7572 4.52861V5.40288C17.1813 4.8809 16.3125 4.8513 15.7022 5.33321V4.52861C15.7022 3.69465 15.0262 3.01843 14.192 3.01843C13.358 3.01843 12.6818 3.69465 12.6818 4.52861V5.33371C12.4029 5.10258 12.0519 4.97619 11.6896 4.97694C11.2691 4.97594 10.8661 5.14562 10.5728 5.44741C9.96844 6.07014 9.96471 7.05935 10.5641 7.68681L11.0385 8.17644C10.8658 8.25556 10.7091 8.36552 10.576 8.50087L10.5728 8.50286L10.5678 8.50808C10.4491 8.62999 10.3508 8.77031 10.2772 8.92382L9.69651 7.85127L8.8001 8.33642L10.1177 10.7684C10.0588 10.802 9.99954 10.8346 9.94356 10.8729C9.92267 10.8871 9.90425 10.9035 9.88385 10.9177L7.91216 9.10071L7.22125 9.85008L9.17976 11.6558C8.95485 11.9999 8.80906 12.3895 8.75283 12.7968ZM19.5125 15.3144L18.2667 16.1458L17.021 15.3154C16.8496 15.2012 16.6267 15.2012 16.4553 15.3154L15.2212 16.1384C15.2183 16.0874 15.2096 16.0431 15.2096 15.9941C15.2063 14.8742 16.0147 13.9166 17.1191 13.732C18.2237 13.5472 19.2995 14.1896 19.6607 15.2497C19.6082 15.2634 19.5582 15.285 19.5125 15.3144ZM20.8144 15.8055L20.8047 15.799C20.7435 14.728 20.1665 13.7532 19.2569 13.1842C18.3476 12.6152 17.2186 12.5226 16.2286 12.9359V9.62393H20.8144V15.8055ZM28.4574 31.0243C28.4574 31.8684 27.7729 32.5529 26.9288 32.5529H24.8907V17.0301L25.9097 16.3498L27.1554 17.1803C27.3269 17.2945 27.5498 17.2945 27.7212 17.1803L28.4574 16.6907V31.0243ZM27.0761 5.52926C27.4082 4.63111 28.2596 4.03077 29.2172 4.01908C29.9661 4.01759 30.6664 4.38904 31.0856 5.00953C31.5355 5.66112 31.637 6.49185 31.3576 7.23276L28.2026 15.6363L27.4383 16.1458L26.1926 15.3154C26.0212 15.2012 25.7983 15.2012 25.6268 15.3154L24.3811 16.1458L23.3474 15.4567L27.0761 5.52926ZM24.93 8.34562L22.2258 15.5438L21.8335 15.8055V9.32538L23.8716 7.28725L24.93 8.34562ZM18.7763 5.03814H23.3621V6.05721H18.7763V5.03814ZM18.4777 7.07627H22.6416L21.113 8.60487H16.9491L18.4777 7.07627ZM11.3 6.1622C11.4022 6.05671 11.5428 5.997 11.6896 5.997C11.8366 5.99725 11.9772 6.05671 12.0795 6.1622L12.8276 6.92649C12.9729 7.07478 13.1936 7.11981 13.3854 7.04094C13.5772 6.96182 13.7021 6.77423 13.7009 6.56674V4.52861C13.6927 4.34774 13.7845 4.17706 13.9397 4.08426C14.0952 3.99121 14.289 3.99121 14.4443 4.08426C14.5998 4.17706 14.6916 4.34774 14.6831 4.52861V6.56674C14.6834 6.77349 14.8085 6.95958 15.0001 7.03771C15.1914 7.11608 15.4111 7.0708 15.5561 6.92351L16.3065 6.15921C16.5214 5.94749 16.8663 5.94749 17.081 6.15921C17.3024 6.38586 17.3024 6.74761 17.081 6.97426L15.58 8.50286L15.5952 8.51828L15.3588 8.75464C15.3178 8.79693 15.2847 8.8462 15.2606 8.89994C15.2533 8.91561 15.2494 8.93153 15.2436 8.9477C15.2285 8.99124 15.2193 9.03652 15.2163 9.0823C15.2163 9.0935 15.2101 9.1027 15.2101 9.1139V13.6084C15.0941 13.7193 14.9864 13.8385 14.8881 13.9651L13.9255 11.9168C13.5702 11.21 12.9281 10.69 12.1626 10.4902C11.9844 10.4442 11.8018 10.4163 11.618 10.4076L11.4873 10.2546C11.3856 10.1379 11.3087 10.0469 11.2963 10.0342C11.1646 9.89636 11.1077 9.70329 11.1435 9.51595C11.1624 9.40947 11.2114 9.31094 11.2846 9.23158L11.2938 9.22287L11.3065 9.20919C11.4911 9.02831 11.7769 9.00169 11.9919 9.145C12.2081 9.28955 12.4982 9.248 12.6654 9.04896C12.8326 8.84968 12.8229 8.55685 12.643 8.36901L11.2963 6.97899C11.0776 6.7501 11.0793 6.3891 11.3 6.1622ZM9.76269 12.9359C9.82912 12.442 10.1025 11.9997 10.5148 11.7195C10.9236 11.4431 11.4314 11.3555 11.9093 11.4792C12.387 11.6031 12.7885 11.9263 13.0115 12.3666L14.3102 15.133C14.2781 15.2522 14.2527 15.3731 14.2343 15.4952L13.9658 15.3159C13.7947 15.2017 13.5715 15.2017 13.4003 15.3159L12.1524 16.1458L11.0223 15.3917L10.9131 15.2549L12.2268 14.2393L11.603 13.4332L10.2784 14.4578L10.1652 14.3167C9.84106 13.9345 9.69477 13.4325 9.76269 12.9359Z"
        fill="white" />
    <path
        d="M5.08798 32.3011C5.4751 33.082 6.27274 33.5749 7.14427 33.5719C7.50129 33.5714 7.85308 33.4883 8.17254 33.3293L8.58578 33.1226L8.99953 33.3293C9.31873 33.4883 9.67053 33.5714 10.0273 33.5719C10.8991 33.5749 11.6965 33.082 12.0838 32.3011L12.2615 31.9446C12.8581 30.7474 13.1696 29.4285 13.1716 28.091C13.1698 26.6161 11.9749 25.4212 10.5 25.4194C10.0029 25.4209 9.51603 25.562 9.09532 25.8269V25.4194C9.09532 24.2939 8.18274 23.3813 7.05719 23.3813V24.4003C7.61996 24.4003 8.07625 24.8566 8.07625 25.4194V25.8269C7.65554 25.562 7.16865 25.4209 6.67156 25.4194C5.1967 25.4212 4.00174 26.6161 4 28.091C4.00174 29.4287 4.31323 30.7481 4.91009 31.9455L5.08798 32.3011ZM6.67156 26.4385C7.10993 26.4372 7.53065 26.6116 7.8399 26.9226L8.22553 27.3083C8.42457 27.507 8.747 27.507 8.94604 27.3083L9.33167 26.9226C9.80438 26.4499 10.5149 26.3086 11.1324 26.5644C11.75 26.8201 12.1525 27.4227 12.1525 28.091C12.1513 29.2708 11.8766 30.4341 11.3499 31.49L11.1723 31.8468C10.9561 32.2809 10.5122 32.5546 10.0273 32.5529C9.82876 32.5526 9.63296 32.5063 9.45507 32.4178L8.81368 32.0968C8.67013 32.0252 8.50144 32.0252 8.35814 32.0968L7.71699 32.4178C7.53911 32.5063 7.34305 32.5526 7.14427 32.5529C6.65912 32.5543 6.21502 32.2799 5.99931 31.845L5.82168 31.4885C5.29523 30.4331 5.02056 29.2703 5.01906 28.091C5.02031 27.1789 5.75948 26.4397 6.67156 26.4385Z"
        fill="white" />
</svg>
