<svg width="32" height="20" viewBox="0 0 32 20" fill="none" xmlns="http://www.w3.org/2000/svg">
    <path
        d="M31.5303 0H28.5794C26.8518 0 25.1678 0.0845001 23.5741 0.25125C23.3162 0.278187 23.1289 0.509187 23.1559 0.767186C23.1829 1.02519 23.4142 1.21294 23.6718 1.18544C25.0886 1.03725 26.5793 0.955373 28.1097 0.941498V3.25481L26.759 4.94143C26.6923 5.0248 26.6559 5.1283 26.6559 5.23505V12.1817C26.6559 12.2519 26.611 12.3122 26.5441 12.3316C25.6936 12.5791 23.6821 13.4178 22.7956 15.934H8.43086C8.17142 15.934 7.96117 16.1443 7.96117 16.4037C7.96117 16.6632 8.17142 16.8734 8.43086 16.8734H24.7599C25.1264 16.8734 25.4246 17.1716 25.4246 17.5381C25.4246 17.9047 25.1264 18.2028 24.7599 18.2028H1.604C1.2375 18.2028 0.939311 17.9047 0.939311 17.5381C0.939311 17.1716 1.2375 16.8734 1.604 16.8734H6.55218C6.81161 16.8734 7.02186 16.6632 7.02186 16.4037C7.02186 16.1443 6.81161 15.934 6.55218 15.934H2.21175C2.3145 15.5871 2.47818 15.0952 2.72481 14.5025C3.18374 13.3995 4.03193 11.7119 5.46643 9.93598C7.07717 7.94161 9.08561 6.24249 11.4359 4.8858C14.382 3.18518 17.8789 2.01931 21.8293 1.42068C22.0858 1.38187 22.2622 1.14244 22.2233 0.885936C22.1845 0.629436 21.9446 0.453124 21.6885 0.491999C17.6073 1.11044 13.9888 2.32137 10.9338 4.09112C10.3405 4.4348 9.76854 4.80005 9.2178 5.18524L8.58148 4.45099C8.16105 3.94518 7.34474 3.88718 6.85617 4.32774L5.76624 5.27236C5.26037 5.69261 5.20212 6.50968 5.64286 6.99767L6.2353 7.68123C5.6918 8.22461 5.17937 8.79329 4.70149 9.38811C3.20262 11.2539 2.3175 13.0275 1.83893 14.1867C1.50531 14.9949 1.31725 15.6223 1.22287 15.9802C0.521811 16.1517 0 16.7849 0 17.538C0 18.4225 0.719561 19.1421 1.604 19.1421H24.7599C25.6444 19.1421 26.3639 18.4225 26.3639 17.538C26.3639 16.6535 25.6443 15.934 24.7599 15.934H23.8006C24.5542 14.1408 25.9757 13.4753 26.8067 13.2335C27.2711 13.0983 27.5953 12.6658 27.5953 12.1817V5.39986L28.946 3.71318C29.0128 3.62987 29.0491 3.52637 29.0491 3.41962V2.97299H31.5303C31.7898 2.97299 32 2.76274 32 2.50331V0.469624C31.9999 0.21025 31.7897 0 31.5303 0ZM6.38136 5.98224L7.47136 5.03755C7.58467 4.93555 7.77405 4.94874 7.87155 5.06618L8.45686 5.74161C7.9198 6.15099 7.40555 6.58105 6.91467 7.03092L6.35268 6.38249C6.25043 6.26924 6.26399 6.07974 6.38136 5.98224ZM31.0606 2.03368H29.0491V0.939311H31.0606V2.03368Z"
        fill="#A7AFBE" />
    <path
        d="M14.6058 7.16616C14.8312 7.03779 14.91 6.75104 14.7817 6.5256C14.6532 6.3001 14.3665 6.22148 14.1411 6.34973C11.0809 8.0916 9.59592 10.123 9.53423 10.2086C9.30842 10.5069 9.54123 10.9617 9.91523 10.9529H20.1569C22.3271 10.9529 24.0927 9.18735 24.0927 7.01716V4.39486C24.0927 4.13542 23.8825 3.92517 23.623 3.92517C20.8593 3.92517 18.2495 4.45073 15.8659 5.48723C15.6281 5.59073 15.5191 5.86735 15.6225 6.10523C15.726 6.34304 16.0023 6.4521 16.2405 6.3486C18.3701 5.42254 20.6935 4.92573 23.1534 4.86979V7.0171C23.1534 8.66929 21.8092 10.0135 20.157 10.0135H19.451V9.37591C19.451 8.59897 18.8189 7.96691 18.042 7.96691H15.313C14.536 7.96691 13.904 8.59897 13.904 9.37591V10.0135H10.9359C11.6125 9.29722 12.83 8.17685 14.6058 7.16616ZM14.8432 9.37597C14.8432 9.11697 15.0539 8.90629 15.3129 8.90629H18.0419C18.3009 8.90629 18.5116 9.11697 18.5116 9.37597V10.0135H14.8432V9.37597Z"
        fill="#A7AFBE" />
</svg>
