<svg width="21" height="30" viewBox="0 0 21 30" fill="none" xmlns="http://www.w3.org/2000/svg">
    <path
        d="M5.5 1V3.3055L0.1315 9.162C0.116961 9.18226 0.104085 9.20366 0.093 9.226C0.0707746 9.25499 0.0518259 9.28634 0.0365 9.3195C0.0246772 9.35512 0.0172882 9.39207 0.0145 9.4295C0.00765826 9.45254 0.00280712 9.47613 0 9.5V29.5C0 29.7761 0.223858 30 0.5 30H18.475C18.7511 30 18.975 29.7761 18.975 29.5C18.975 29.2239 18.7511 29 18.475 29H12V10H19.5V22.52C19.5 22.7961 19.7239 23.02 20 23.02C20.2761 23.02 20.5 22.7961 20.5 22.52V9.5C20.4972 9.47613 20.4923 9.45254 20.4855 9.4295C20.4827 9.39207 20.4753 9.35512 20.4635 9.3195C20.4482 9.28634 20.4292 9.25499 20.407 9.226C20.3959 9.20366 20.383 9.18226 20.3685 9.162L15 3.3055V1C15 0.447715 14.5523 0 14 0H6.5C5.94772 0 5.5 0.447715 5.5 1ZM1.6365 9L6 4.24L10.3635 9H1.6365ZM11 29H1V10H11V29ZM18.8635 9H11.72L7.1365 4H14.28L18.8635 9ZM6.5 1H14V3H6.5V1Z"
        fill="#A7AFBE" />
    <path
        d="M9.00006 18.6305V17.1855C10.4603 16.2277 10.9435 14.3112 10.1121 12.7755C10.0399 12.6322 9.90342 12.5322 9.74502 12.5067C9.58662 12.4811 9.42558 12.5331 9.31207 12.6465L7.83307 14.1255C6.75464 13.2905 5.24799 13.2905 4.16956 14.1255L2.68856 12.6465C2.57505 12.5331 2.41401 12.4811 2.25561 12.5067C2.09721 12.5322 1.96069 12.6322 1.88856 12.7755C1.057 14.311 1.54005 16.2276 3.00006 17.1855V18.6305C2.1065 19.3693 1.77221 20.589 2.16432 21.6801C2.55642 22.7712 3.59068 23.4991 4.75006 23.5H7.25006C8.40944 23.4991 9.44371 22.7712 9.83581 21.6801C10.2279 20.589 9.89363 19.3693 9.00006 18.6305ZM9.45006 13.9245C9.62431 14.6374 9.43742 15.3904 8.95006 15.939C8.87649 15.5548 8.728 15.1889 8.51306 14.862L9.45006 13.9245ZM2.55006 13.9215L3.48956 14.861C3.27463 15.1892 3.12663 15.5565 3.05406 15.942C2.55956 15.3948 2.37053 14.6369 2.55006 13.9215ZM4.00006 16.5C4.00163 15.6955 4.48437 14.9701 5.22582 14.6579C5.96727 14.3457 6.82355 14.5074 7.40006 15.0685L7.41956 15.09C7.42706 15.099 7.43457 15.107 7.44256 15.1155C7.80053 15.4875 8.00037 15.9838 8.00006 16.5V18.1065C7.75622 18.0364 7.5038 18.0005 7.25006 18H4.75006C4.49633 18.0005 4.24391 18.0364 4.00006 18.1065V16.5ZM7.25006 22.5H4.75006C3.78357 22.5 3.00006 21.7165 3.00006 20.75C3.00006 19.7835 3.78357 19 4.75006 19H7.25006C8.21656 19 9.00006 19.7835 9.00006 20.75C9.00006 21.7165 8.21656 22.5 7.25006 22.5Z"
        fill="#A7AFBE" />
    <path
        d="M5 17C5.27614 17 5.5 16.7762 5.5 16.5C5.5 16.2239 5.27614 16 5 16C4.72386 16 4.5 16.2239 4.5 16.5C4.5 16.7762 4.72386 17 5 17Z"
        fill="#A7AFBE" />
    <path
        d="M6.99976 17C7.2759 17 7.49976 16.7762 7.49976 16.5C7.49976 16.2239 7.2759 16 6.99976 16C6.72361 16 6.49976 16.2239 6.49976 16.5C6.49976 16.7762 6.72361 17 6.99976 17Z"
        fill="#A7AFBE" />
    <path
        d="M5 20C4.72386 20 4.5 20.2239 4.5 20.5V21C4.5 21.2762 4.72386 21.5 5 21.5C5.27614 21.5 5.5 21.2762 5.5 21V20.5C5.5 20.2239 5.27614 20 5 20Z"
        fill="#A7AFBE" />
    <path
        d="M6.99976 20C6.72361 20 6.49976 20.2239 6.49976 20.5V21C6.49976 21.2762 6.72361 21.5 6.99976 21.5C7.2759 21.5 7.49976 21.2762 7.49976 21V20.5C7.49976 20.2239 7.2759 20 6.99976 20Z"
        fill="#A7AFBE" />
    <path
        d="M4 27H3V26C3 25.7239 2.77614 25.5 2.5 25.5C2.22386 25.5 2 25.7239 2 26V27.5C2 27.7762 2.22386 28 2.5 28H4C4.27614 28 4.5 27.7762 4.5 27.5C4.5 27.2239 4.27614 27 4 27Z"
        fill="#A7AFBE" />
    <path
        d="M19.5 25L19.5 29L18.5 29C18.2239 29 18 29.2239 18 29.5C18 29.7761 18.2239 30 18.5 30L20 30C20.2761 30 20.5 29.7761 20.5 29.5L20.5 25C20.5 24.7239 20.2761 24.5 20 24.5C19.7239 24.5 19.5 24.7239 19.5 25Z"
        fill="#A7AFBE" />
</svg>
