<svg width="19" height="19" viewBox="0 0 19 19" fill="none" xmlns="http://www.w3.org/2000/svg">
    <path
        d="M5.86118 1.56229H1.23307C0.553412 1.56544 0.00321526 2.11564 6.10352e-05 2.7953V7.42341C0.00321526 8.10307 0.553412 8.65326 1.23307 8.65642H5.86118C6.54084 8.65326 7.09104 8.10307 7.09419 7.42341V2.7953C7.09104 2.11564 6.54084 1.56544 5.86118 1.56229ZM5.9472 7.42341C5.9472 7.47093 5.90871 7.50943 5.86118 7.50943H1.23307C1.18555 7.50943 1.14705 7.47093 1.14705 7.42341V2.7953C1.14705 2.74777 1.18555 2.70928 1.23307 2.70928H5.86118C5.90871 2.70928 5.9472 2.74777 5.9472 2.7953V7.42341Z"
        fill="#A7AFBE" />
    <path
        d="M7.09425 17.706V13.1181C7.0911 12.4384 6.5409 11.8882 5.86124 11.8851H1.23314C0.553473 11.8882 0.00327701 12.4384 0.000122792 13.1181V17.706C-0.00941156 18.3901 0.537487 18.9524 1.22152 18.9619C1.22539 18.9619 1.22926 18.9619 1.23314 18.9619H5.86124C6.54535 18.9588 7.09748 18.4017 7.09432 17.7176C7.09432 17.7138 7.09432 17.7099 7.09425 17.706ZM5.94726 17.706C5.94726 17.7536 5.90877 17.7921 5.86124 17.7921H1.23314C1.18561 17.7921 1.14711 17.7536 1.14711 17.706V13.1181C1.14711 13.0706 1.18561 13.0321 1.23314 13.0321H5.86124C5.90877 13.0321 5.94726 13.0706 5.94726 13.1181V17.706Z"
        fill="#A7AFBE" />
    <path
        d="M13.1388 2.996H9.41682C9.1001 2.996 8.84332 3.25278 8.84332 3.5695C8.84332 3.88621 9.1001 4.14299 9.41682 4.14299H13.1388C13.4555 4.14299 13.7123 3.88621 13.7123 3.5695C13.7123 3.25278 13.4555 2.996 13.1388 2.996Z"
        fill="#A7AFBE" />
    <path
        d="M18.4264 6.08139H9.41682C9.10011 6.08139 8.84332 6.33817 8.84332 6.65488C8.84332 6.9716 9.10011 7.22838 9.41682 7.22838H18.4264C18.7431 7.22838 18.9999 6.9716 18.9999 6.65488C18.9999 6.33817 18.7431 6.08139 18.4264 6.08139Z"
        fill="#A7AFBE" />
    <path
        d="M13.1388 13.2959H9.41682C9.1001 13.2959 8.84332 13.5527 8.84332 13.8694C8.84332 14.1861 9.1001 14.4429 9.41682 14.4429H13.1388C13.4555 14.4429 13.7123 14.1861 13.7123 13.8694C13.7123 13.5527 13.4555 13.2959 13.1388 13.2959Z"
        fill="#A7AFBE" />
    <path
        d="M18.4264 16.3813H9.41682C9.10011 16.3813 8.84332 16.6381 8.84332 16.9548C8.84332 17.2716 9.10011 17.5283 9.41682 17.5283H18.4264C18.7431 17.5283 18.9999 17.2716 18.9999 16.9548C18.9999 16.6381 18.7431 16.3813 18.4264 16.3813Z"
        fill="#A7AFBE" />
    <path
        d="M3.22833 6.63661L3.22821 6.63672L3.23684 6.64541C3.44193 6.85179 3.71212 6.95397 3.97955 6.95397C4.24734 6.95397 4.51601 6.85175 4.72096 6.64833L4.73575 6.63365L4.74913 6.61765L8.33911 2.32551C8.73304 1.91449 8.72775 1.26194 8.32322 0.857415L8.00502 1.17561L8.32322 0.857415C7.91328 0.447473 7.24881 0.447616 6.83886 0.857316L6.82296 0.873203L6.80873 0.890594L3.96202 4.36865L3.52892 3.89379L3.52195 3.88614L3.51464 3.87883C3.10475 3.46894 2.44021 3.46894 2.03032 3.87883C1.62219 4.28696 1.62053 4.94737 2.02481 5.35774L3.22833 6.63661Z"
        fill="#A7AFBE" stroke="white" stroke-width="0.9" />
</svg>
